<mxfile host="app.diagrams.net" agent="Mozilla/5.0 (Windows NT 10.0; Win64; x64) AppleWebKit/537.36 (KHTML, like Gecko) Chrome/133.0.0.0 Safari/537.36" version="26.0.16">
  <diagram name="Page-1" id="CA9OaQWJdPcieko273lv">
    <mxGraphModel dx="2117" dy="1822" grid="0" gridSize="10" guides="1" tooltips="1" connect="1" arrows="1" fold="1" page="1" pageScale="1" pageWidth="827" pageHeight="1169" math="0" shadow="0">
      <root>
        <mxCell id="0" />
        <mxCell id="1" parent="0" />
        <mxCell id="sXHvDaJGedlOMtMm5zLg-24" style="edgeStyle=none;curved=1;rounded=0;orthogonalLoop=1;jettySize=auto;html=1;fontSize=12;startSize=8;endSize=8;labelBackgroundColor=none;strokeColor=#A8201A;fontColor=default;" parent="1" source="DIM88qBCfVGFY8QU8LkZ-4" target="WPAA0XK5yfSlv5IIpikp-2" edge="1">
          <mxGeometry relative="1" as="geometry">
            <mxPoint x="256" y="-413" as="targetPoint" />
          </mxGeometry>
        </mxCell>
        <mxCell id="sXHvDaJGedlOMtMm5zLg-26" style="edgeStyle=none;curved=1;rounded=0;orthogonalLoop=1;jettySize=auto;html=1;fontSize=12;startSize=8;endSize=8;labelBackgroundColor=none;strokeColor=#A8201A;fontColor=default;entryX=0.983;entryY=0.388;entryDx=0;entryDy=0;entryPerimeter=0;" parent="1" source="DIM88qBCfVGFY8QU8LkZ-5" target="WPAA0XK5yfSlv5IIpikp-3" edge="1">
          <mxGeometry relative="1" as="geometry">
            <mxPoint x="258" y="-255" as="targetPoint" />
          </mxGeometry>
        </mxCell>
        <mxCell id="sXHvDaJGedlOMtMm5zLg-29" style="edgeStyle=none;curved=1;rounded=0;orthogonalLoop=1;jettySize=auto;html=1;entryX=0.975;entryY=0.675;entryDx=0;entryDy=0;fontSize=12;startSize=8;endSize=8;labelBackgroundColor=none;strokeColor=#A8201A;fontColor=default;entryPerimeter=0;" parent="1" source="DIM88qBCfVGFY8QU8LkZ-11" target="WPAA0XK5yfSlv5IIpikp-5" edge="1">
          <mxGeometry relative="1" as="geometry">
            <mxPoint x="256" y="-63" as="targetPoint" />
          </mxGeometry>
        </mxCell>
        <mxCell id="dqMgHZY9iFHiHRd6_skg-25" style="edgeStyle=none;curved=1;rounded=0;orthogonalLoop=1;jettySize=auto;html=1;fontSize=12;startSize=8;endSize=8;labelBackgroundColor=none;strokeColor=#A8201A;fontColor=default;entryX=0.958;entryY=0.3;entryDx=0;entryDy=0;entryPerimeter=0;" parent="1" source="DIM88qBCfVGFY8QU8LkZ-13" target="WPAA0XK5yfSlv5IIpikp-6" edge="1">
          <mxGeometry relative="1" as="geometry">
            <mxPoint x="220.81996726677562" y="-12" as="targetPoint" />
          </mxGeometry>
        </mxCell>
        <mxCell id="dqMgHZY9iFHiHRd6_skg-26" style="edgeStyle=none;curved=1;rounded=0;orthogonalLoop=1;jettySize=auto;html=1;fontSize=12;startSize=8;endSize=8;labelBackgroundColor=none;strokeColor=#A8201A;fontColor=default;entryX=0.958;entryY=0.625;entryDx=0;entryDy=0;entryPerimeter=0;" parent="1" source="DIM88qBCfVGFY8QU8LkZ-1" target="WPAA0XK5yfSlv5IIpikp-1" edge="1">
          <mxGeometry relative="1" as="geometry">
            <mxPoint x="233.96062992125985" y="-478" as="targetPoint" />
          </mxGeometry>
        </mxCell>
        <mxCell id="sXHvDaJGedlOMtMm5zLg-2" value="User&lt;div&gt;&lt;br&gt;&lt;/div&gt;" style="shape=umlActor;verticalLabelPosition=bottom;verticalAlign=top;html=1;outlineConnect=0;labelBackgroundColor=none;fillColor=#FAE5C7;strokeColor=#0F8B8D;fontColor=#143642;" parent="1" vertex="1">
          <mxGeometry x="673" y="-344" width="57" height="83" as="geometry" />
        </mxCell>
        <mxCell id="sXHvDaJGedlOMtMm5zLg-22" value="" style="edgeStyle=none;curved=1;rounded=0;orthogonalLoop=1;jettySize=auto;html=1;fontSize=12;startSize=8;endSize=8;labelBackgroundColor=none;strokeColor=#A8201A;fontColor=default;entryX=0.008;entryY=0.4;entryDx=0;entryDy=0;entryPerimeter=0;" parent="1" source="DIM88qBCfVGFY8QU8LkZ-24" target="WPAA0XK5yfSlv5IIpikp-3" edge="1">
          <mxGeometry relative="1" as="geometry">
            <mxPoint x="138" y="-247.5" as="targetPoint" />
          </mxGeometry>
        </mxCell>
        <mxCell id="sXHvDaJGedlOMtMm5zLg-23" style="edgeStyle=none;curved=1;rounded=0;orthogonalLoop=1;jettySize=auto;html=1;fontSize=12;startSize=8;endSize=8;labelBackgroundColor=none;strokeColor=#A8201A;fontColor=default;entryX=0.033;entryY=0.413;entryDx=0;entryDy=0;entryPerimeter=0;" parent="1" source="DIM88qBCfVGFY8QU8LkZ-27" target="WPAA0XK5yfSlv5IIpikp-1" edge="1">
          <mxGeometry relative="1" as="geometry">
            <mxPoint x="126" y="-489" as="targetPoint" />
          </mxGeometry>
        </mxCell>
        <mxCell id="sXHvDaJGedlOMtMm5zLg-5" value="Payment&lt;div&gt;&lt;br&gt;&lt;/div&gt;" style="shape=umlActor;verticalLabelPosition=bottom;verticalAlign=top;html=1;outlineConnect=0;labelBackgroundColor=none;fillColor=#FAE5C7;strokeColor=#0F8B8D;fontColor=#143642;" parent="1" vertex="1">
          <mxGeometry x="-418" y="-361" width="57" height="83" as="geometry" />
        </mxCell>
        <mxCell id="sXHvDaJGedlOMtMm5zLg-35" value="" style="edgeStyle=none;curved=1;rounded=0;orthogonalLoop=1;jettySize=auto;html=1;fontSize=12;startSize=8;endSize=8;entryX=0.05;entryY=0.625;entryDx=0;entryDy=0;labelBackgroundColor=none;strokeColor=#A8201A;fontColor=default;entryPerimeter=0;" parent="1" source="DIM88qBCfVGFY8QU8LkZ-20" target="WPAA0XK5yfSlv5IIpikp-4" edge="1">
          <mxGeometry relative="1" as="geometry">
            <mxPoint x="129" y="-144.5" as="targetPoint" />
          </mxGeometry>
        </mxCell>
        <mxCell id="sXHvDaJGedlOMtMm5zLg-37" style="edgeStyle=none;curved=1;rounded=0;orthogonalLoop=1;jettySize=auto;html=1;fontSize=12;startSize=8;endSize=8;labelBackgroundColor=none;strokeColor=#A8201A;fontColor=default;entryX=0.008;entryY=0.625;entryDx=0;entryDy=0;entryPerimeter=0;" parent="1" source="DIM88qBCfVGFY8QU8LkZ-16" target="WPAA0XK5yfSlv5IIpikp-6" edge="1">
          <mxGeometry relative="1" as="geometry">
            <mxPoint x="136" y="-7.622473726758244" as="targetPoint" />
          </mxGeometry>
        </mxCell>
        <mxCell id="sXHvDaJGedlOMtMm5zLg-40" style="edgeStyle=none;curved=1;rounded=0;orthogonalLoop=1;jettySize=auto;html=1;entryX=0.117;entryY=0.763;entryDx=0;entryDy=0;fontSize=12;startSize=8;endSize=8;labelBackgroundColor=none;strokeColor=#A8201A;fontColor=default;entryPerimeter=0;" parent="1" source="DIM88qBCfVGFY8QU8LkZ-22" target="WPAA0XK5yfSlv5IIpikp-1" edge="1">
          <mxGeometry relative="1" as="geometry">
            <mxPoint x="134" y="-493" as="targetPoint" />
          </mxGeometry>
        </mxCell>
        <mxCell id="dqMgHZY9iFHiHRd6_skg-27" style="edgeStyle=none;curved=1;rounded=0;orthogonalLoop=1;jettySize=auto;html=1;fontSize=12;startSize=8;endSize=8;labelBackgroundColor=none;strokeColor=#A8201A;fontColor=default;entryX=0.1;entryY=0.775;entryDx=0;entryDy=0;entryPerimeter=0;" parent="1" source="DIM88qBCfVGFY8QU8LkZ-18" target="WPAA0XK5yfSlv5IIpikp-5" edge="1">
          <mxGeometry relative="1" as="geometry">
            <mxPoint x="136" y="-67.21988682295887" as="targetPoint" />
          </mxGeometry>
        </mxCell>
        <mxCell id="sXHvDaJGedlOMtMm5zLg-21" value="&lt;div&gt;Admin&lt;/div&gt;&lt;div&gt;&lt;br&gt;&lt;/div&gt;" style="shape=umlActor;verticalLabelPosition=bottom;verticalAlign=top;html=1;outlineConnect=0;labelBackgroundColor=none;fillColor=#FAE5C7;strokeColor=#0F8B8D;fontColor=#143642;" parent="1" vertex="1">
          <mxGeometry x="-451" y="-148" width="57" height="83" as="geometry" />
        </mxCell>
        <mxCell id="sXHvDaJGedlOMtMm5zLg-28" style="edgeStyle=none;curved=1;rounded=0;orthogonalLoop=1;jettySize=auto;html=1;entryX=0.95;entryY=0.325;entryDx=0;entryDy=0;fontSize=12;startSize=8;endSize=8;labelBackgroundColor=none;strokeColor=#A8201A;fontColor=default;entryPerimeter=0;" parent="1" source="DIM88qBCfVGFY8QU8LkZ-9" target="WPAA0XK5yfSlv5IIpikp-4" edge="1">
          <mxGeometry relative="1" as="geometry">
            <mxPoint x="249" y="-152" as="targetPoint" />
          </mxGeometry>
        </mxCell>
        <mxCell id="WPAA0XK5yfSlv5IIpikp-1" value="&lt;span style=&quot;color: rgb(20, 54, 66);&quot;&gt;Confirmation&lt;/span&gt;" style="ellipse;whiteSpace=wrap;html=1;" parent="1" vertex="1">
          <mxGeometry x="113" y="-544" width="120" height="80" as="geometry" />
        </mxCell>
        <mxCell id="WPAA0XK5yfSlv5IIpikp-2" value="Log in" style="ellipse;whiteSpace=wrap;html=1;" parent="1" vertex="1">
          <mxGeometry x="113" y="-438" width="120" height="80" as="geometry" />
        </mxCell>
        <mxCell id="WPAA0XK5yfSlv5IIpikp-3" value="Cart" style="ellipse;whiteSpace=wrap;html=1;" parent="1" vertex="1">
          <mxGeometry x="113" y="-334" width="120" height="80" as="geometry" />
        </mxCell>
        <mxCell id="WPAA0XK5yfSlv5IIpikp-4" value="&lt;span style=&quot;color: rgb(20, 54, 66);&quot;&gt;Product Info&lt;/span&gt;" style="ellipse;whiteSpace=wrap;html=1;" parent="1" vertex="1">
          <mxGeometry x="113" y="-228" width="120" height="80" as="geometry" />
        </mxCell>
        <mxCell id="WPAA0XK5yfSlv5IIpikp-5" value="&lt;span style=&quot;color: rgb(20, 54, 66);&quot;&gt;Track Product&lt;/span&gt;" style="ellipse;whiteSpace=wrap;html=1;" parent="1" vertex="1">
          <mxGeometry x="113" y="-137" width="120" height="80" as="geometry" />
        </mxCell>
        <mxCell id="WPAA0XK5yfSlv5IIpikp-6" value="Recomendations" style="ellipse;whiteSpace=wrap;html=1;" parent="1" vertex="1">
          <mxGeometry x="113" y="-29" width="120" height="80" as="geometry" />
        </mxCell>
        <mxCell id="DIM88qBCfVGFY8QU8LkZ-6" value="" style="edgeStyle=none;curved=1;rounded=0;orthogonalLoop=1;jettySize=auto;html=1;fontSize=12;startSize=8;endSize=8;labelBackgroundColor=none;strokeColor=#A8201A;fontColor=default;entryX=0.983;entryY=0.388;entryDx=0;entryDy=0;entryPerimeter=0;" edge="1" parent="1" source="sXHvDaJGedlOMtMm5zLg-2" target="DIM88qBCfVGFY8QU8LkZ-5">
          <mxGeometry relative="1" as="geometry">
            <mxPoint x="231" y="-303" as="targetPoint" />
            <mxPoint x="673" y="-303" as="sourcePoint" />
          </mxGeometry>
        </mxCell>
        <mxCell id="DIM88qBCfVGFY8QU8LkZ-5" value="user selects cart" style="text;html=1;align=center;verticalAlign=middle;whiteSpace=wrap;rounded=0;" vertex="1" parent="1">
          <mxGeometry x="348" y="-324" width="60" height="30" as="geometry" />
        </mxCell>
        <mxCell id="DIM88qBCfVGFY8QU8LkZ-7" value="" style="edgeStyle=none;curved=1;rounded=0;orthogonalLoop=1;jettySize=auto;html=1;fontSize=12;startSize=8;endSize=8;labelBackgroundColor=none;strokeColor=#A8201A;fontColor=default;" edge="1" parent="1" source="sXHvDaJGedlOMtMm5zLg-2" target="DIM88qBCfVGFY8QU8LkZ-4">
          <mxGeometry relative="1" as="geometry">
            <mxPoint x="231" y="-388" as="targetPoint" />
            <mxPoint x="673" y="-308" as="sourcePoint" />
          </mxGeometry>
        </mxCell>
        <mxCell id="DIM88qBCfVGFY8QU8LkZ-4" value="user gives log in" style="text;html=1;align=center;verticalAlign=middle;whiteSpace=wrap;rounded=0;rotation=10;" vertex="1" parent="1">
          <mxGeometry x="354" y="-374" width="60" height="30" as="geometry" />
        </mxCell>
        <mxCell id="DIM88qBCfVGFY8QU8LkZ-8" value="" style="edgeStyle=none;curved=1;rounded=0;orthogonalLoop=1;jettySize=auto;html=1;fontSize=12;startSize=8;endSize=8;labelBackgroundColor=none;strokeColor=#A8201A;fontColor=default;entryX=0.958;entryY=0.625;entryDx=0;entryDy=0;entryPerimeter=0;" edge="1" parent="1" source="sXHvDaJGedlOMtMm5zLg-2" target="DIM88qBCfVGFY8QU8LkZ-1">
          <mxGeometry relative="1" as="geometry">
            <mxPoint x="228" y="-494" as="targetPoint" />
            <mxPoint x="673" y="-314" as="sourcePoint" />
          </mxGeometry>
        </mxCell>
        <mxCell id="DIM88qBCfVGFY8QU8LkZ-1" value="user gets confirmation&amp;nbsp;" style="text;html=1;align=center;verticalAlign=middle;whiteSpace=wrap;rounded=0;rotation=25;" vertex="1" parent="1">
          <mxGeometry x="320" y="-449" width="120.51" height="30" as="geometry" />
        </mxCell>
        <mxCell id="DIM88qBCfVGFY8QU8LkZ-10" value="" style="edgeStyle=none;curved=1;rounded=0;orthogonalLoop=1;jettySize=auto;html=1;entryX=0.95;entryY=0.325;entryDx=0;entryDy=0;fontSize=12;startSize=8;endSize=8;labelBackgroundColor=none;strokeColor=#A8201A;fontColor=default;entryPerimeter=0;" edge="1" parent="1" source="sXHvDaJGedlOMtMm5zLg-2" target="DIM88qBCfVGFY8QU8LkZ-9">
          <mxGeometry relative="1" as="geometry">
            <mxPoint x="227" y="-202" as="targetPoint" />
            <mxPoint x="673" y="-296" as="sourcePoint" />
          </mxGeometry>
        </mxCell>
        <mxCell id="DIM88qBCfVGFY8QU8LkZ-9" value="user views productinfo" style="text;html=1;align=center;verticalAlign=middle;whiteSpace=wrap;rounded=0;" vertex="1" parent="1">
          <mxGeometry x="362" y="-265" width="60" height="30" as="geometry" />
        </mxCell>
        <mxCell id="DIM88qBCfVGFY8QU8LkZ-12" value="" style="edgeStyle=none;curved=1;rounded=0;orthogonalLoop=1;jettySize=auto;html=1;entryX=0.975;entryY=0.675;entryDx=0;entryDy=0;fontSize=12;startSize=8;endSize=8;labelBackgroundColor=none;strokeColor=#A8201A;fontColor=default;entryPerimeter=0;" edge="1" parent="1" source="sXHvDaJGedlOMtMm5zLg-2" target="DIM88qBCfVGFY8QU8LkZ-11">
          <mxGeometry relative="1" as="geometry">
            <mxPoint x="230" y="-83" as="targetPoint" />
            <mxPoint x="673" y="-289" as="sourcePoint" />
          </mxGeometry>
        </mxCell>
        <mxCell id="DIM88qBCfVGFY8QU8LkZ-11" value="user views product tracking&amp;nbsp;" style="text;html=1;align=center;verticalAlign=middle;whiteSpace=wrap;rounded=0;" vertex="1" parent="1">
          <mxGeometry x="384" y="-190" width="60" height="30" as="geometry" />
        </mxCell>
        <mxCell id="DIM88qBCfVGFY8QU8LkZ-14" value="" style="edgeStyle=none;curved=1;rounded=0;orthogonalLoop=1;jettySize=auto;html=1;fontSize=12;startSize=8;endSize=8;labelBackgroundColor=none;strokeColor=#A8201A;fontColor=default;entryX=0.958;entryY=0.3;entryDx=0;entryDy=0;entryPerimeter=0;" edge="1" parent="1" source="sXHvDaJGedlOMtMm5zLg-2" target="DIM88qBCfVGFY8QU8LkZ-13">
          <mxGeometry relative="1" as="geometry">
            <mxPoint x="228" y="-5" as="targetPoint" />
            <mxPoint x="673" y="-285" as="sourcePoint" />
          </mxGeometry>
        </mxCell>
        <mxCell id="DIM88qBCfVGFY8QU8LkZ-15" style="edgeStyle=orthogonalEdgeStyle;rounded=0;orthogonalLoop=1;jettySize=auto;html=1;exitX=0.5;exitY=1;exitDx=0;exitDy=0;" edge="1" parent="1" source="DIM88qBCfVGFY8QU8LkZ-13">
          <mxGeometry relative="1" as="geometry">
            <mxPoint x="378" y="-79.20001220703125" as="targetPoint" />
          </mxGeometry>
        </mxCell>
        <mxCell id="DIM88qBCfVGFY8QU8LkZ-13" value="user views reccomendations&lt;div&gt;&lt;br&gt;&lt;/div&gt;" style="text;html=1;align=center;verticalAlign=middle;whiteSpace=wrap;rounded=0;" vertex="1" parent="1">
          <mxGeometry x="348" y="-126" width="60" height="30" as="geometry" />
        </mxCell>
        <mxCell id="DIM88qBCfVGFY8QU8LkZ-17" value="" style="edgeStyle=none;curved=1;rounded=0;orthogonalLoop=1;jettySize=auto;html=1;fontSize=12;startSize=8;endSize=8;labelBackgroundColor=none;strokeColor=#A8201A;fontColor=default;entryX=0.008;entryY=0.625;entryDx=0;entryDy=0;entryPerimeter=0;" edge="1" parent="1" source="sXHvDaJGedlOMtMm5zLg-21" target="DIM88qBCfVGFY8QU8LkZ-16">
          <mxGeometry relative="1" as="geometry">
            <mxPoint x="114" y="21" as="targetPoint" />
            <mxPoint x="-394" y="-100" as="sourcePoint" />
          </mxGeometry>
        </mxCell>
        <mxCell id="DIM88qBCfVGFY8QU8LkZ-16" value="updated reccomendations" style="text;html=1;align=center;verticalAlign=middle;whiteSpace=wrap;rounded=0;" vertex="1" parent="1">
          <mxGeometry x="-159" y="-57" width="90" height="30" as="geometry" />
        </mxCell>
        <mxCell id="DIM88qBCfVGFY8QU8LkZ-19" value="" style="edgeStyle=none;curved=1;rounded=0;orthogonalLoop=1;jettySize=auto;html=1;fontSize=12;startSize=8;endSize=8;labelBackgroundColor=none;strokeColor=#A8201A;fontColor=default;entryX=0.1;entryY=0.775;entryDx=0;entryDy=0;entryPerimeter=0;" edge="1" parent="1" source="sXHvDaJGedlOMtMm5zLg-21" target="DIM88qBCfVGFY8QU8LkZ-18">
          <mxGeometry relative="1" as="geometry">
            <mxPoint x="125" y="-75" as="targetPoint" />
            <mxPoint x="-394" y="-105" as="sourcePoint" />
          </mxGeometry>
        </mxCell>
        <mxCell id="DIM88qBCfVGFY8QU8LkZ-18" value="updates product status" style="text;html=1;align=center;verticalAlign=middle;whiteSpace=wrap;rounded=0;" vertex="1" parent="1">
          <mxGeometry x="-108" y="-104" width="106" height="30" as="geometry" />
        </mxCell>
        <mxCell id="DIM88qBCfVGFY8QU8LkZ-21" value="" style="edgeStyle=none;curved=1;rounded=0;orthogonalLoop=1;jettySize=auto;html=1;fontSize=12;startSize=8;endSize=8;entryX=0.05;entryY=0.625;entryDx=0;entryDy=0;labelBackgroundColor=none;strokeColor=#A8201A;fontColor=default;entryPerimeter=0;" edge="1" parent="1" source="sXHvDaJGedlOMtMm5zLg-21" target="DIM88qBCfVGFY8QU8LkZ-20">
          <mxGeometry relative="1" as="geometry">
            <mxPoint x="119" y="-178" as="targetPoint" />
            <mxPoint x="-394" y="-110" as="sourcePoint" />
          </mxGeometry>
        </mxCell>
        <mxCell id="DIM88qBCfVGFY8QU8LkZ-20" value="updates product info" style="text;html=1;align=center;verticalAlign=middle;whiteSpace=wrap;rounded=0;" vertex="1" parent="1">
          <mxGeometry x="-118" y="-171" width="60" height="30" as="geometry" />
        </mxCell>
        <mxCell id="DIM88qBCfVGFY8QU8LkZ-23" value="" style="edgeStyle=none;curved=1;rounded=0;orthogonalLoop=1;jettySize=auto;html=1;entryX=0.117;entryY=0.763;entryDx=0;entryDy=0;fontSize=12;startSize=8;endSize=8;labelBackgroundColor=none;strokeColor=#A8201A;fontColor=default;entryPerimeter=0;" edge="1" parent="1" source="sXHvDaJGedlOMtMm5zLg-21" target="DIM88qBCfVGFY8QU8LkZ-22">
          <mxGeometry relative="1" as="geometry">
            <mxPoint x="127" y="-483" as="targetPoint" />
            <mxPoint x="-394" y="-126" as="sourcePoint" />
          </mxGeometry>
        </mxCell>
        <mxCell id="DIM88qBCfVGFY8QU8LkZ-22" value="updates confirmation" style="text;html=1;align=center;verticalAlign=middle;whiteSpace=wrap;rounded=0;" vertex="1" parent="1">
          <mxGeometry x="-219" y="-281" width="110" height="30" as="geometry" />
        </mxCell>
        <mxCell id="DIM88qBCfVGFY8QU8LkZ-25" value="" style="edgeStyle=none;curved=1;rounded=0;orthogonalLoop=1;jettySize=auto;html=1;fontSize=12;startSize=8;endSize=8;labelBackgroundColor=none;strokeColor=#A8201A;fontColor=default;entryX=0.008;entryY=0.4;entryDx=0;entryDy=0;entryPerimeter=0;" edge="1" parent="1" source="sXHvDaJGedlOMtMm5zLg-5" target="DIM88qBCfVGFY8QU8LkZ-24">
          <mxGeometry relative="1" as="geometry">
            <mxPoint x="114" y="-302" as="targetPoint" />
            <mxPoint x="-361" y="-319" as="sourcePoint" />
          </mxGeometry>
        </mxCell>
        <mxCell id="DIM88qBCfVGFY8QU8LkZ-24" value="gives payment to cart" style="text;html=1;align=center;verticalAlign=middle;whiteSpace=wrap;rounded=0;" vertex="1" parent="1">
          <mxGeometry x="-244" y="-334" width="60" height="30" as="geometry" />
        </mxCell>
        <mxCell id="DIM88qBCfVGFY8QU8LkZ-26" value="" style="edgeStyle=none;curved=1;rounded=0;orthogonalLoop=1;jettySize=auto;html=1;fontSize=12;startSize=8;endSize=8;labelBackgroundColor=none;strokeColor=#A8201A;fontColor=default;entryX=0.033;entryY=0.413;entryDx=0;entryDy=0;entryPerimeter=0;" edge="1" parent="1" source="sXHvDaJGedlOMtMm5zLg-5" target="DIM88qBCfVGFY8QU8LkZ-27">
          <mxGeometry relative="1" as="geometry">
            <mxPoint x="117" y="-511" as="targetPoint" />
            <mxPoint x="-361" y="-330" as="sourcePoint" />
          </mxGeometry>
        </mxCell>
        <mxCell id="DIM88qBCfVGFY8QU8LkZ-27" value="payment gives confirmation" style="text;html=1;align=center;verticalAlign=middle;whiteSpace=wrap;rounded=0;" vertex="1" parent="1">
          <mxGeometry x="-177" y="-434" width="60" height="30" as="geometry" />
        </mxCell>
      </root>
    </mxGraphModel>
  </diagram>
</mxfile>
